<?xml version="1.0" encoding="iso-8859-1"?>
<!-- Generator: Adobe Illustrator 16.0.0, SVG Export Plug-In . SVG Version: 6.00 Build 0)  -->
<!DOCTYPE svg PUBLIC "-//W3C//DTD SVG 1.1//EN" "http://www.w3.org/Graphics/SVG/1.1/DTD/svg11.dtd">
<svg version="1.1" id="Capa_1" xmlns="http://www.w3.org/2000/svg" xmlns:xlink="http://www.w3.org/1999/xlink" x="0px" y="0px"
	 width="85px" height="85px" viewBox="0 0 85 85" style="enable-background:new 0 0 85 85;" xml:space="preserve">
<g>
	<path d="M42.5,0C19.065,0,0,19.065,0,42.5C0,65.936,19.065,85,42.5,85C65.936,85,85,65.936,85,42.5C85,19.065,65.936,0,42.5,0z
		 M42.5,3.014c10.92,0,20.818,4.458,27.975,11.647c-1.707,1.979-3.901,3.739-6.468,5.226c0.035-0.189,0.073-0.377,0.124-0.563
		c0.4-1.457,1.325-2.645,2.741-3.558c0.118-0.007,0.235-0.018,0.358-0.038c1.14-0.189,1.976-0.875,1.865-1.533
		c-0.109-0.656-1.121-1.035-2.261-0.846s-1.976,0.875-1.866,1.532c0.002,0.008,0.008,0.017,0.01,0.026
		c-1.287,1.06-2.162,2.373-2.59,3.936c-0.188,0.679-0.272,1.374-0.296,2.068c-1.987,0.983-4.149,1.818-6.442,2.481
		c0.037-0.287,0.086-0.573,0.164-0.853c0.373-1.354,1.232-2.46,2.549-3.31c0.111-0.007,0.221-0.017,0.334-0.036
		c1.06-0.176,1.837-0.815,1.736-1.426c-0.102-0.61-1.041-0.962-2.103-0.785c-1.06,0.177-1.836,0.815-1.735,1.426
		c0,0.008,0.006,0.015,0.008,0.024c-1.197,0.986-2.011,2.208-2.412,3.661c-0.158,0.578-0.239,1.167-0.27,1.758
		c-2.849,0.701-5.865,1.147-8.969,1.302c0.225-0.458,0.486-0.895,0.802-1.292c0.94-1.182,2.257-1.912,3.917-2.195
		c0.111,0.039,0.225,0.076,0.344,0.105c1.123,0.273,2.162-0.029,2.319-0.676c0.157-0.646-0.625-1.393-1.748-1.667
		c-1.122-0.272-2.159,0.029-2.317,0.676c-0.002,0.009,0,0.018-0.002,0.027c-1.602,0.469-2.92,1.334-3.93,2.603
		c-0.596,0.75-1.04,1.593-1.376,2.476c-0.155,0.001-0.309,0.005-0.463,0.005c-2.897,0-5.74-0.258-8.465-0.741
		c0.325-0.503,0.696-0.971,1.132-1.375c1.107-1.027,2.519-1.551,4.203-1.581c0.104,0.055,0.211,0.109,0.325,0.155
		c1.069,0.44,2.14,0.296,2.393-0.32c0.253-0.616-0.408-1.471-1.477-1.91c-1.068-0.438-2.14-0.296-2.393,0.32
		c-0.003,0.008-0.003,0.018-0.006,0.027c-1.653,0.223-3.087,0.879-4.275,1.982c-0.727,0.674-1.308,1.474-1.782,2.329
		c-2.815-0.62-5.479-1.486-7.912-2.567c0.39-0.582,0.843-1.114,1.375-1.559c1.158-0.969,2.595-1.421,4.278-1.365
		c0.101,0.06,0.205,0.12,0.316,0.172c1.045,0.493,2.123,0.405,2.407-0.197c0.284-0.602-0.333-1.49-1.378-1.983
		c-1.044-0.493-2.122-0.404-2.406,0.198c-0.004,0.008-0.004,0.019-0.007,0.026c-1.662,0.139-3.128,0.722-4.371,1.762
		c-0.739,0.619-1.346,1.363-1.855,2.167c-2.255-1.145-4.276-2.483-5.987-3.989c0.373-0.412,0.78-0.788,1.235-1.1
		c1.246-0.854,2.719-1.166,4.389-0.949c0.095,0.07,0.193,0.139,0.299,0.202c0.993,0.591,2.074,0.606,2.415,0.034
		c0.34-0.572-0.188-1.515-1.182-2.106c-0.992-0.59-2.074-0.605-2.414-0.033c-0.004,0.007-0.005,0.017-0.01,0.025
		c-1.667-0.021-3.183,0.419-4.519,1.336c-0.564,0.387-1.064,0.846-1.52,1.345c-0.272-0.282-0.531-0.57-0.782-0.862
		C21.682,7.472,31.58,3.014,42.5,3.014z M12.472,16.901c0.346,0.391,0.712,0.771,1.089,1.145c-1.275,2.416-1.828,5.052-2.046,6.439
		c-0.817,0.26-1.37,0.786-1.302,1.319c0.084,0.661,1.081,1.077,2.228,0.932c1.146-0.146,2.007-0.8,1.923-1.46
		c-0.051-0.402-0.444-0.712-1-0.862c0.218-1.234,0.678-3.228,1.579-5.094c1.848,1.587,3.981,2.994,6.345,4.191
		c-0.807,2.29-1.056,4.587-1.132,5.85c-0.788,0.338-1.288,0.913-1.169,1.437c0.147,0.65,1.179,0.969,2.306,0.714
		c1.127-0.255,1.922-0.989,1.775-1.638c-0.09-0.396-0.51-0.667-1.079-0.762c0.092-1.163,0.333-3.001,0.943-4.818
		c2.489,1.114,5.196,2.01,8.06,2.665c-0.662,2.291-0.792,4.545-0.802,5.79c-0.77,0.378-1.24,0.977-1.095,1.495
		c0.18,0.641,1.228,0.908,2.34,0.596c1.113-0.312,1.869-1.085,1.689-1.726c-0.109-0.391-0.543-0.641-1.116-0.707
		c0.034-1.211,0.189-3.159,0.758-5.075c3.02,0.573,6.193,0.879,9.45,0.897c-0.324,2.392-0.11,4.675,0.068,5.92
		c-0.704,0.489-1.079,1.151-0.857,1.642c0.274,0.606,1.35,0.713,2.403,0.237c1.053-0.476,1.686-1.354,1.41-1.961
		c-0.167-0.369-0.633-0.55-1.209-0.53c-0.154-1.243-0.299-3.283,0.014-5.33c3.532-0.1,6.952-0.544,10.171-1.295
		c0.552,2.436,1.712,4.592,2.378,5.691c-0.424,0.674-0.503,1.378-0.135,1.716c0.455,0.419,1.414,0.117,2.141-0.676
		c0.728-0.792,0.947-1.773,0.492-2.192c-0.277-0.253-0.742-0.239-1.229-0.01c-0.623-1.074-1.566-2.928-2.02-4.94
		c2.329-0.632,4.539-1.43,6.596-2.377c0.604,2.579,1.83,4.855,2.539,6.022c-0.457,0.726-0.541,1.483-0.145,1.847
		c0.49,0.45,1.521,0.125,2.303-0.725c0.781-0.852,1.018-1.906,0.527-2.357c-0.299-0.274-0.799-0.258-1.321-0.013
		c-0.7-1.205-1.778-3.321-2.237-5.592c3.334-1.742,6.203-3.9,8.422-6.407c5.891,6.901,9.459,15.84,9.459,25.601
		c0,9.557-3.414,18.33-9.086,25.168c-2.246-2.6-5.178-4.832-8.606-6.623c0.459-2.271,1.537-4.388,2.237-5.592
		c0.521,0.245,1.021,0.262,1.32-0.014c0.49-0.45,0.254-1.506-0.526-2.356c-0.781-0.851-1.813-1.175-2.304-0.726
		c-0.396,0.365-0.312,1.121,0.145,1.848c-0.709,1.167-1.936,3.443-2.539,6.023c-2.057-0.947-4.268-1.746-6.595-2.377
		c0.452-2.014,1.396-3.867,2.019-4.941c0.485,0.229,0.95,0.244,1.229-0.01c0.455-0.418,0.234-1.4-0.492-2.191
		c-0.727-0.792-1.686-1.095-2.141-0.676c-0.369,0.338-0.289,1.041,0.135,1.716c-0.668,1.099-1.827,3.255-2.379,5.69
		c-3.219-0.75-6.639-1.194-10.17-1.295c-0.313-2.047-0.168-4.086-0.015-5.33c0.576,0.021,1.042-0.16,1.209-0.529
		c0.274-0.608-0.356-1.485-1.411-1.961c-1.053-0.477-2.127-0.369-2.403,0.236c-0.221,0.491,0.154,1.153,0.858,1.643
		c-0.178,1.246-0.392,3.529-0.068,5.92c-3.258,0.018-6.431,0.325-9.45,0.896c-0.569-1.916-0.725-3.863-0.758-5.074
		c0.572-0.066,1.007-0.316,1.116-0.707c0.18-0.641-0.577-1.414-1.689-1.727c-1.112-0.312-2.16-0.045-2.34,0.596
		c-0.145,0.519,0.325,1.117,1.095,1.496c0.011,1.244,0.141,3.5,0.802,5.789c-2.863,0.655-5.57,1.551-8.059,2.666
		c-0.611-1.816-0.852-3.656-0.943-4.818c0.568-0.096,0.989-0.366,1.078-0.762c0.147-0.649-0.647-1.383-1.774-1.639
		c-1.127-0.254-2.16,0.064-2.307,0.715c-0.119,0.523,0.382,1.098,1.17,1.437c0.076,1.263,0.324,3.56,1.131,5.85
		c-2.363,1.197-4.497,2.604-6.345,4.191c-0.9-1.866-1.361-3.86-1.578-5.095c0.557-0.149,0.949-0.459,1-0.861
		c0.084-0.661-0.777-1.314-1.923-1.46c-1.146-0.146-2.144,0.271-2.228,0.931c-0.067,0.533,0.485,1.059,1.302,1.319
		c0.218,1.387,0.77,4.022,2.046,6.438c-0.516,0.512-0.994,1.045-1.454,1.588C6.51,61.023,3.014,52.164,3.014,42.5
		C3.014,32.739,6.582,23.8,12.472,16.901z M42.5,81.986c-11.017,0-20.989-4.541-28.158-11.842c0.364-0.446,0.743-0.889,1.155-1.314
		c0.455,0.499,0.955,0.958,1.519,1.344c1.337,0.917,2.852,1.356,4.52,1.336c0.004,0.008,0.005,0.018,0.009,0.025
		c0.341,0.572,1.422,0.558,2.415-0.033s1.522-1.534,1.182-2.105c-0.34-0.571-1.421-0.558-2.415,0.033
		c-0.106,0.064-0.204,0.133-0.298,0.203c-1.67,0.215-3.144-0.095-4.389-0.949c-0.456-0.312-0.862-0.688-1.235-1.101
		c1.71-1.506,3.731-2.845,5.986-3.989c0.509,0.805,1.116,1.549,1.855,2.167c1.243,1.041,2.708,1.624,4.37,1.763
		c0.004,0.009,0.004,0.019,0.008,0.026c0.284,0.603,1.361,0.691,2.406,0.198c1.045-0.493,1.662-1.381,1.378-1.982
		c-0.284-0.604-1.362-0.691-2.407-0.199c-0.112,0.054-0.215,0.113-0.316,0.173c-1.683,0.057-3.12-0.396-4.278-1.364
		c-0.532-0.445-0.985-0.977-1.375-1.559c2.433-1.082,5.096-1.947,7.912-2.567c0.474,0.854,1.054,1.653,1.781,2.329
		c1.188,1.102,2.623,1.759,4.275,1.98c0.003,0.01,0.003,0.02,0.006,0.027c0.253,0.616,1.325,0.76,2.393,0.32
		c1.069-0.439,1.73-1.295,1.477-1.91c-0.253-0.616-1.325-0.76-2.394-0.32c-0.114,0.047-0.221,0.102-0.325,0.156
		c-1.684-0.029-3.096-0.555-4.203-1.582c-0.436-0.404-0.807-0.872-1.132-1.375c2.725-0.482,5.568-0.74,8.465-0.74
		c0.155,0,0.309,0.004,0.463,0.006c0.336,0.883,0.779,1.726,1.375,2.476c1.01,1.269,2.33,2.133,3.93,2.603
		c0.002,0.01,0,0.02,0.002,0.027c0.158,0.646,1.195,0.949,2.318,0.676s1.904-1.02,1.748-1.667c-0.158-0.647-1.196-0.95-2.318-0.676
		c-0.12,0.028-0.232,0.065-0.346,0.104c-1.659-0.283-2.977-1.014-3.916-2.194c-0.316-0.397-0.578-0.834-0.803-1.292
		c3.104,0.154,6.121,0.601,8.969,1.301c0.031,0.591,0.111,1.18,0.271,1.758c0.4,1.453,1.213,2.676,2.411,3.661
		c-0.001,0.009-0.007,0.017-0.008,0.024c-0.101,0.61,0.676,1.25,1.735,1.426c1.061,0.177,2.002-0.176,2.103-0.785
		c0.101-0.611-0.677-1.25-1.736-1.427c-0.112-0.02-0.224-0.028-0.333-0.035c-1.316-0.851-2.177-1.956-2.55-3.31
		c-0.077-0.28-0.126-0.565-0.164-0.854c2.292,0.664,4.456,1.499,6.443,2.481c0.022,0.694,0.108,1.39,0.294,2.068
		c0.43,1.562,1.304,2.876,2.591,3.936c-0.002,0.011-0.007,0.019-0.009,0.026c-0.109,0.657,0.727,1.345,1.865,1.532
		c1.142,0.189,2.153-0.189,2.263-0.845c0.108-0.657-0.726-1.343-1.867-1.533c-0.122-0.021-0.239-0.031-0.358-0.038
		c-1.416-0.912-2.34-2.102-2.74-3.559c-0.051-0.185-0.088-0.373-0.123-0.562c2.666,1.546,4.937,3.388,6.669,5.464
		C63.68,77.355,53.624,81.986,42.5,81.986z"/>
</g>
<g>
</g>
<g>
</g>
<g>
</g>
<g>
</g>
<g>
</g>
<g>
</g>
<g>
</g>
<g>
</g>
<g>
</g>
<g>
</g>
<g>
</g>
<g>
</g>
<g>
</g>
<g>
</g>
<g>
</g>
</svg>
