<?xml version="1.0" encoding="iso-8859-1"?>
<!-- Generator: Adobe Illustrator 19.0.0, SVG Export Plug-In . SVG Version: 6.00 Build 0)  -->
<svg version="1.1" id="Capa_1" xmlns="http://www.w3.org/2000/svg" xmlns:xlink="http://www.w3.org/1999/xlink" x="0px" y="0px"
	 viewBox="0 0 512 512" style="enable-background:new 0 0 512 512;" xml:space="preserve">
<circle style="fill:#ECEFF1;" cx="256" cy="256" r="256"/>
<path d="M247.392,269.504C171.256,223.065,121.293,143.619,112.416,54.88l31.808-3.52c7.942,79.062,52.508,149.822,120.384,191.136
	L247.392,269.504z"/>
<path d="M203.968,407.424c-90.656-65.343-151.095-164.517-167.616-275.04l31.616-4.928
	c15.293,102.158,71.158,193.825,154.944,254.24L203.968,407.424z"/>
<path d="M153.024,480.832L134.4,454.848c64.588-46.225,103.697-120.117,105.6-199.52l32,1.344
	C269.768,345.936,225.702,428.958,153.024,480.832z"/>
<path d="M251.36,507.776l-20.16-24.832C311.35,418.87,360.971,324.132,368,221.76l32,2.592
	C392.291,335.462,338.38,438.26,251.36,507.776z"/>
<path d="M263.424,270.176l-14.848-28.352c78.475-42.388,172.2-45.865,253.6-9.408l-12.8,29.248
	C416.945,228.64,333.166,231.796,263.424,270.176z"/>
<path d="M471.936,185.6c-92.245-57.267-207.391-63.305-305.12-16l-13.632-28.8c107.501-51.949,234.116-45.235,335.52,17.792
	L471.936,185.6z"/>
<path d="M256,512C114.615,512,0,397.385,0,256S114.615,0,256,0s256,114.615,256,256C511.841,397.319,397.319,511.841,256,512z
	 M256,32C132.288,32,32,132.288,32,256s100.288,224,224,224s224-100.288,224-224C479.859,132.347,379.653,32.141,256,32z"/>
<g>
</g>
<g>
</g>
<g>
</g>
<g>
</g>
<g>
</g>
<g>
</g>
<g>
</g>
<g>
</g>
<g>
</g>
<g>
</g>
<g>
</g>
<g>
</g>
<g>
</g>
<g>
</g>
<g>
</g>
</svg>
